<?xml version="1.0" standalone="no"?>
<!DOCTYPE svg PUBLIC "-//W3C//DTD SVG 20010904//EN"
 "http://www.w3.org/TR/2001/REC-SVG-20010904/DTD/svg10.dtd">
<svg version="1.0" xmlns="http://www.w3.org/2000/svg"
 width="1024.000000pt" height="1024.000000pt" viewBox="0 0 1024.000000 1024.000000"
 preserveAspectRatio="xMidYMid meet">

<g transform="translate(0.000000,1024.000000) scale(0.100000,-0.100000)"
fill="#000000" stroke="none">
<path d="M3224 5875 c-144 -72 -147 -276 -4 -353 127 -67 277 30 274 180 -2
80 -37 138 -106 172 -65 32 -101 33 -164 1z"/>
<path d="M1160 5804 c-41 -16 -40 -5 -40 -881 0 -823 0 -843 19 -853 28 -15
314 -13 329 2 9 9 12 146 12 555 0 299 3 543 8 542 4 0 111 -158 237 -350 127
-193 243 -361 258 -374 35 -31 68 -32 102 -2 14 12 131 182 260 377 l235 355
0 -542 c0 -479 2 -543 16 -557 13 -13 42 -16 160 -16 81 0 154 5 165 10 19 10
19 31 19 859 0 777 -1 850 -17 862 -12 11 -53 14 -159 14 l-144 0 -29 -30
c-16 -16 -138 -196 -271 -400 -259 -395 -267 -405 -285 -405 -7 0 -115 160
-241 356 -255 397 -277 428 -317 458 -25 19 -44 21 -165 23 -75 1 -144 0 -152
-3z"/>
<path d="M4168 5370 c-349 -59 -573 -367 -529 -727 21 -174 76 -289 190 -403
87 -87 164 -131 277 -160 190 -49 381 -5 517 119 l57 53 0 -38 c0 -130 -42
-238 -119 -305 -136 -120 -437 -101 -636 42 -35 26 -47 30 -59 20 -20 -17
-146 -218 -146 -234 0 -33 208 -140 339 -174 125 -33 357 -38 461 -10 189 50
342 170 419 327 73 151 73 150 78 828 4 461 2 606 -7 617 -16 20 -289 22 -308
3 -7 -7 -12 -40 -12 -80 0 -37 -1 -68 -3 -68 -1 0 -30 26 -63 58 -33 31 -83
69 -111 84 -93 51 -222 68 -345 48z m277 -311 c151 -41 232 -172 223 -364 -5
-111 -35 -183 -104 -244 -78 -69 -125 -86 -234 -86 -83 1 -101 4 -147 28 -75
39 -115 78 -154 149 -33 61 -34 67 -34 173 0 92 4 118 22 157 39 85 126 162
213 189 38 11 170 10 215 -2z"/>
<path d="M5691 5369 c-120 -20 -254 -93 -341 -186 -119 -127 -170 -264 -170
-457 0 -134 18 -214 70 -321 48 -99 118 -179 214 -243 98 -65 178 -92 296 -99
161 -9 294 37 402 138 l50 47 -4 -86 c-5 -107 -30 -168 -96 -235 -134 -136
-410 -126 -643 24 -25 16 -50 29 -55 29 -10 0 -144 -203 -151 -230 -10 -40
182 -151 333 -191 109 -30 355 -33 459 -5 272 71 447 265 484 539 15 105 15
1201 1 1228 -10 17 -22 19 -145 19 -73 0 -140 -3 -149 -6 -13 -5 -16 -22 -16
-80 0 -41 -1 -74 -3 -74 -2 0 -28 24 -58 54 -64 61 -177 121 -258 136 -63 12
-144 11 -220 -1z m350 -329 c55 -29 116 -92 142 -148 18 -39 21 -66 21 -167 1
-108 -2 -125 -23 -170 -33 -66 -100 -131 -169 -163 -49 -23 -70 -27 -147 -26
-107 0 -159 21 -231 91 -67 65 -97 138 -102 248 -3 74 0 100 18 147 26 71 97
151 163 184 89 46 242 47 328 4z"/>
<path d="M8165 5364 c-259 -40 -483 -241 -551 -494 -23 -86 -23 -252 0 -340
61 -236 226 -403 476 -482 63 -19 95 -23 200 -22 148 1 219 17 332 76 208 108
339 312 355 552 20 314 -172 593 -472 686 -69 21 -266 35 -340 24z m266 -325
c61 -27 132 -102 167 -177 23 -50 27 -70 27 -157 0 -125 -26 -201 -93 -276
-66 -74 -108 -92 -222 -97 -121 -5 -187 17 -255 85 -163 166 -137 487 49 602
86 53 229 62 327 20z"/>
<path d="M7344 5345 c-34 -7 -76 -21 -93 -30 -49 -25 -109 -83 -139 -134 l-27
-46 -3 95 c-2 60 -7 97 -15 102 -14 9 -268 11 -291 2 -14 -6 -16 -70 -16 -628
0 -470 3 -625 12 -634 14 -14 285 -17 306 -4 9 6 13 90 17 352 3 189 10 360
15 381 23 85 117 185 198 210 20 6 84 14 142 18 l105 6 3 150 c2 132 1 151
-15 162 -22 17 -120 15 -199 -2z"/>
<path d="M3153 5332 c-9 -5 -12 -164 -15 -630 -2 -540 0 -624 12 -632 23 -15
293 -13 308 2 17 17 17 1239 0 1256 -13 13 -284 17 -305 4z"/>
</g>
</svg>
